M48
; DRILL file {KiCad (6.0.1-0)} date Tuesday, May 30, 2023 at 09:20:58 pm
; FORMAT={-:-/ absolute / metric / decimal}
; #@! TF.CreationDate,2023-05-30T21:20:58-04:00
; #@! TF.GenerationSoftware,Kicad,Pcbnew,(6.0.1-0)
; #@! TF.FileFunction,MixedPlating,1,2
FMAT,2
METRIC
; #@! TA.AperFunction,Plated,PTH,ViaDrill
T1C0.400
; #@! TA.AperFunction,Plated,PTH,ComponentDrill
T2C0.800
; #@! TA.AperFunction,Plated,PTH,ComponentDrill
T3C0.900
; #@! TA.AperFunction,Plated,PTH,ComponentDrill
T4C1.000
; #@! TA.AperFunction,Plated,PTH,ComponentDrill
T5C1.100
; #@! TA.AperFunction,Plated,PTH,ComponentDrill
T6C1.295
; #@! TA.AperFunction,Plated,PTH,ComponentDrill
T7C1.780
; #@! TA.AperFunction,Plated,PTH,ComponentDrill
T8C1.850
%
G90
G05
T1
X117.15Y-93.53
X117.23Y-78.64
X117.3Y-87.04
X117.32Y-70.69
T2
X139.98Y-66.798
X139.98Y-69.298
X147.65Y-66.65
X147.65Y-69.19
X147.65Y-71.73
X147.65Y-74.27
X154.43Y-83.865
X154.43Y-86.405
X154.43Y-88.945
X154.43Y-91.485
X154.43Y-94.025
X154.43Y-96.565
X154.43Y-99.105
X155.27Y-66.65
X155.27Y-69.19
X155.27Y-71.73
X155.27Y-74.27
X155.89Y-106.08
X155.89Y-108.58
X157.34Y-78.75
X158.74Y-66.44
X158.74Y-74.06
X159.84Y-78.75
X162.05Y-83.865
X162.05Y-86.405
X162.05Y-88.945
X162.05Y-91.485
X162.05Y-94.025
X162.05Y-96.565
X162.05Y-99.105
X164.23Y-76.8
X164.23Y-78.8
X165.4Y-98.78
X165.4Y-106.4
X166.04Y-82.33
X166.04Y-89.95
X169.19Y-82.3
X169.19Y-89.92
T3
X160.57Y-106.16
X160.57Y-108.7
X163.82Y-69.125
X163.82Y-71.665
T4
X150.85Y-91.48
X150.85Y-94.02
X150.85Y-96.56
X150.85Y-99.1
X150.85Y-101.64
X150.85Y-104.18
X168.997Y-93.155
X168.997Y-95.695
X168.997Y-98.235
X168.997Y-100.775
X168.997Y-103.315
X168.997Y-105.855
X169.275Y-69.18
X169.275Y-71.72
X169.275Y-74.26
X169.275Y-76.8
T5
X137.36Y-90.245
X137.41Y-82.745
X137.49Y-75.275
X139.9Y-90.245
X139.95Y-82.745
X140.03Y-75.275
X142.44Y-90.245
X142.49Y-82.745
X142.57Y-75.275
X146.69Y-78.98
X154.31Y-78.98
X154.47Y-102.46
X162.09Y-102.46
T6
X121.201Y-67.75
X121.201Y-75.25
X121.201Y-82.75
X121.201Y-90.25
X129.401Y-67.75
X129.401Y-75.25
X129.401Y-82.75
X129.401Y-90.25
T7
X127.12Y-98.28
X127.12Y-108.2
X130.52Y-98.28
X130.52Y-108.2
T8
X121.14Y-98.63
X121.14Y-103.33
X121.14Y-108.03
T2
G00X136.5Y-97.615
M15
G01X138.7Y-97.615
M16
G05
G00X136.5Y-103.865
M15
G01X138.7Y-103.865
M16
G05
G00X142.4Y-101.715
M15
G01X142.4Y-99.515
M16
G05
T0
M30
